<svg id="Capa_1" data-name="Capa 1" xmlns="http://www.w3.org/2000/svg" viewBox="0 0 386.86 456.1"><defs><style>.cls-1{fill:#b5b9c1;}</style></defs><path class="cls-1" d="M407.19,376.16l-41.8-69.4a.41.41,0,0,1-.05-.18V217.86c0-66.27-37.82-123.68-91.88-147.76a.35.35,0,0,1-.2-.31V60.6c0-33.43-25.6-60.6-57.12-60.6S159,27.17,159,60.6v9.19a.35.35,0,0,1-.2.31C104.77,94.18,67,151.07,67,217.86v88.72a.41.41,0,0,1,0,.18l-41.8,69.4c-3,4.7-3,11-.5,16.2a14.15,14.15,0,0,0,12.81,8.36h111a.33.33,0,0,1,.33.26c8,31.73,35,55.12,66.9,55.12h1c32.41,0,59.43-23.38,66.9-55.12a.34.34,0,0,1,.33-.26h111a14.15,14.15,0,0,0,12.81-8.36A15.89,15.89,0,0,0,407.19,376.16ZM188.57,60.6c0-16.19,12.31-29.25,27.57-29.25s27.58,13.06,27.58,29.25h0A160.16,160.16,0,0,0,216.14,58a160.14,160.14,0,0,0-27.57,2.61Zm28.07,363.63h-1c-15.57,0-29.22-9.7-35.72-23.55a.34.34,0,0,1,.31-.48H252a.35.35,0,0,1,.32.48C245.86,414.53,232.21,424.23,216.64,424.23ZM64.49,368.85,94,319.74a16.42,16.42,0,0,0,2.46-8.36V217.86c0-71.05,53.67-128.52,119.65-128.52S335.8,146.81,335.8,217.86v93.52a16.45,16.45,0,0,0,2.46,8.36l29.23,48.59a.34.34,0,0,1-.29.52Z" transform="translate(-22.81)"/></svg>